<svg width="400" height="400" viewBox="0 0 400 400" fill="none" xmlns="http://www.w3.org/2000/svg">
<path fill-rule="evenodd" clip-rule="evenodd" d="M95.8592 95.3287C151.582 39.606 239.148 35.756 296.915 84.5199L305.562 93.1675C362.413 150.521 361.951 244.321 303.401 302.871C244.695 361.577 150.645 362.707 93.3342 305.396C36.0231 248.085 37.1535 154.034 95.8592 95.3287ZM175.754 223.886C135.693 263.947 139.095 334.363 195.749 334.618C231.169 334.778 266.941 321.126 294.298 293.768C347.699 240.368 348.879 154.91 297.056 102.584L175.754 223.886ZM104.962 104.431C54.392 155.001 50.6535 234.32 94.4105 287.024L208.249 173.186C250.81 130.624 242.08 56.1599 182.556 65.1016C154.293 69.3474 126.918 82.4755 104.962 104.431Z" fill="#1B1B1D"/>
<path d="M400 0C364.626 35.3745 355.102 94.4594 366.361 140.149C359.65 118.383 345.632 89.509 328.504 72.3814C311.377 55.2537 282.384 40.4688 260.618 33.7573C306.308 45.0166 364.626 35.3745 400 0Z" fill="#1B1B1D"/>
<path d="M140.149 366.362C118.383 359.651 89.0655 345.19 71.9379 328.063C54.9967 310.882 40.4066 282.198 33.7524 260.618C45.0117 306.308 35.3744 364.626 0 400.001C2.75222 397.248 5.64796 394.653 8.66976 392.211C10.5029 390.73 12.3824 389.305 14.3044 387.937C49.9363 362.57 100.17 356.51 140.149 366.362Z" fill="#1B1B1D"/>
</svg>
